<?xml version="1.0" standalone="no"?>
<!DOCTYPE svg PUBLIC "-//W3C//DTD SVG 20010904//EN"
 "http://www.w3.org/TR/2001/REC-SVG-20010904/DTD/svg10.dtd">
<svg version="1.0" xmlns="http://www.w3.org/2000/svg"
 width="870.000000pt" height="870.000000pt" viewBox="0 0 870.000000 870.000000"
 preserveAspectRatio="xMidYMid meet">
<metadata>
Created by potrace 1.11, written by Peter Selinger 2001-2013
</metadata>
<g transform="translate(0.000000,870.000000) scale(0.100000,-0.100000)"
fill="#000000" stroke="none">
<path d="M3878 7015 c-2 -2 -75 -6 -163 -9 -182 -8 -287 -13 -395 -21 -41 -4
-100 -8 -130 -10 -105 -6 -237 -18 -340 -31 -30 -3 -77 -8 -105 -10 -27 -2
-59 -5 -70 -8 -11 -2 -54 -7 -95 -11 -41 -4 -77 -9 -80 -10 -3 -2 -28 -6 -55
-9 -28 -4 -59 -8 -70 -10 -12 -2 -48 -8 -80 -12 -62 -8 -73 -10 -77 -13 -2 -1
-19 -4 -38 -6 -19 -2 -48 -6 -65 -10 -16 -3 -43 -8 -60 -10 -16 -3 -41 -8 -55
-11 -28 -6 -104 -22 -135 -28 -11 -2 -60 -14 -110 -26 -49 -12 -97 -23 -105
-25 -94 -20 -334 -95 -338 -106 -2 -5 -7 -7 -12 -4 -9 6 -192 -70 -257 -106
-137 -76 -220 -147 -256 -220 l-24 -47 0 -416 c0 -229 4 -419 8 -422 5 -3 9
-47 9 -97 0 -88 -1 -93 -22 -94 -12 -1 -35 -7 -52 -14 -40 -16 -118 -78 -111
-89 3 -4 -2 -11 -10 -14 -25 -9 -43 -66 -50 -155 -3 -46 32 -164 47 -155 4 3
8 0 8 -6 0 -32 85 -87 178 -116 14 -4 18 -184 3 -184 -6 0 -9 -52 -9 -120 0
-66 4 -120 9 -120 11 0 12 -180 2 -181 -5 0 -84 -1 -176 -2 -137 -2 -169 -5
-177 -17 -5 -8 -10 -11 -10 -7 0 17 -42 -16 -66 -53 -48 -72 -39 -163 22 -224
20 -20 40 -34 44 -31 5 3 10 -1 12 -7 4 -10 49 -13 182 -13 l177 0 -5 -210
c-7 -263 -7 -331 0 -583 3 -123 1 -208 -4 -215 -10 -12 -9 -525 0 -557 3 -8
11 -36 18 -62 7 -27 17 -48 23 -48 6 0 7 -3 4 -6 -7 -7 24 -70 53 -109 32 -44
152 -155 161 -150 5 4 9 2 9 -2 0 -11 60 -47 60 -36 0 4 4 3 8 -3 4 -6 36 -22
72 -35 l65 -23 3099 -2 c3200 -1 3142 -2 3231 36 17 7 35 14 41 15 13 3 94 53
114 71 72 64 122 124 157 191 74 140 73 123 67 971 -5 718 -4 752 13 753 10 0
86 1 168 2 158 2 181 8 225 56 49 55 62 139 29 198 -46 83 -86 100 -234 101
-60 0 -131 1 -156 1 l-46 1 1 304 0 305 25 7 c14 4 29 7 34 6 4 -1 7 3 7 9 0
5 5 7 10 4 6 -3 10 -1 10 4 0 6 4 11 9 11 14 0 66 51 64 61 -2 5 1 9 7 9 5 0
19 18 30 40 11 22 18 40 14 40 -4 0 -2 6 3 13 6 6 9 40 8 73 -2 68 -28 136
-73 185 -27 31 -109 79 -135 79 -11 0 -13 83 -10 506 3 375 1 516 -8 543 -22
67 -102 153 -185 200 -16 9 -31 19 -34 23 -10 13 -213 105 -300 136 -180 64
-391 122 -610 168 -189 39 -606 106 -750 120 -81 7 -145 15 -160 19 -8 2 -55
6 -105 10 -49 3 -101 8 -115 10 -14 2 -70 7 -125 11 -55 3 -118 8 -140 9 -22
2 -98 6 -170 10 -71 4 -146 9 -165 12 -37 4 -1207 12 -1212 8z"/>
</g>
</svg>
